<?xml version="1.0" encoding="utf-8"?>
<!-- Generator: Adobe Illustrator 23.0.4, SVG Export Plug-In . SVG Version: 6.00 Build 0)  -->
<svg version="1.1" id="Layer_1" xmlns="http://www.w3.org/2000/svg" xmlns:xlink="http://www.w3.org/1999/xlink" x="0px" y="0px"
	 viewBox="0 0 792 612" style="enable-background:new 0 0 792 612;" xml:space="preserve">
<style type="text/css">
	.st0{fill:#FEDA09;}
	.st1{fill:#404041;}
</style>
<path class="st0" d="M482.9,289.8h5.5v-13.5h-4.6l-1.3,0c-13,0-23.6,11.2-23.6,25s10.6,25,23.6,25h5.9v-13.5l-5.9,0
	c-3,0-5.9-1.3-8-3.6c-2.2-2.5-3.3-5.9-2.9-9.3C472.2,294.1,477.1,289.8,482.9,289.8z"/>
<path class="st0" d="M499.6,276.3h-5.9v13.5l5.9,0c3,0,5.9,1.3,8,3.6c2.2,2.5,3.3,5.9,2.9,9.3c-0.7,5.8-5.5,10.1-11.3,10.1h-5.5
	v13.5l5.9,0c13,0,23.6-11.2,23.6-25C523.2,287.5,512.6,276.3,499.6,276.3z"/>
<path class="st1" d="M181.7,325.5c-4.4,0-8.4-1.1-12.1-3.3s-6.7-5.2-8.8-9c-2.2-3.8-3.2-7.8-3.2-12.2c0-4.3,1.1-8.4,3.2-12
	c2.2-3.7,5.1-6.6,8.8-8.8s7.7-3.3,12.1-3.3c5.2,0,9.9,1.5,14,4.4c4.2,3,7.1,7,8.9,12.2h-12.3c-1.3-2.2-2.7-3.9-4.4-5
	c-1.7-1.1-3.8-1.7-6.2-1.7c-2.5,0-4.8,0.6-6.8,1.9c-2,1.3-3.6,3-4.7,5.1s-1.7,4.6-1.7,7.3s0.6,5.1,1.8,7.3c1.2,2.2,2.9,3.9,4.9,5.1
	c2.1,1.3,4.4,1.9,7,1.9c4.1,0,7.5-2.1,10.1-6.3h12.3c-1.9,5.2-4.9,9.2-8.9,12.1C191.6,324.1,186.9,325.5,181.7,325.5z"/>
<path class="st1" d="M235.3,286.9c-3.1,0-5.4,1.1-6.9,3.4c-1.5,2.2-2.3,5.6-2.3,10.2V324h-10.9v-60.9h10.9v18.4
	c3.3-3.2,7.3-4.8,11.8-4.8c2.2,0,4.7,0.6,7.5,1.8s5.1,3.2,7.1,6.2c2,2.9,3,6.7,3,11.4v27.9h-10.9v-23.8c0-4.7-0.8-8.1-2.3-10.2
	C240.8,287.9,238.4,286.9,235.3,286.9z"/>
<path class="st1" d="M287.2,325.5c-4.2,0-8-1.1-11.3-3.2s-6-5.1-7.9-8.9c-1.9-3.8-2.9-7.9-2.9-12.5c0-4.4,1-8.4,3-12.1
	c2-3.7,4.7-6.6,8.2-8.8c3.5-2.2,7.4-3.2,11.7-3.2c3,0,6,0.7,8.9,2.2c2.9,1.5,5,3.2,6.2,5.1h0.2v-5.8h10V324h-10v-5.7
	c-1.8,2.1-4.2,3.9-7.2,5.2C293,324.9,290.1,325.5,287.2,325.5z M302.9,301.1c0-2.6-0.6-5-1.7-7.2c-1.1-2.2-2.7-3.9-4.8-5.1
	c-2-1.3-4.3-1.9-6.9-1.9c-2.5,0-4.8,0.6-6.9,1.9c-2,1.3-3.7,3-4.8,5.3c-1.2,2.2-1.8,4.7-1.8,7.4c0,2.5,0.6,4.9,1.8,7
	s2.8,3.9,4.9,5.1c2.1,1.3,4.4,1.9,6.9,1.9c2.6,0,4.9-0.6,6.9-1.9c2-1.3,3.6-3,4.7-5.2C302.3,306.1,302.9,303.7,302.9,301.1z"/>
<path class="st1" d="M339.2,263.2v10h-10.9v-10H339.2z M339.2,278.4V324h-10.9v-45.6H339.2z"/>
<path class="st1" d="M374.3,286.9c-1.4,0-2.8,0.4-4.2,1.1c-1.4,0.7-2.7,2-3.7,3.8c-1,1.8-1.6,4.3-1.6,7.4V324h-10.9v-45.6H364v4
	c1.9-1.9,3.9-3.2,5.8-4.1c2-0.9,4.2-1.4,6.7-1.4c2.5,0,5,0.6,7.8,1.8c2.7,1.2,5.1,3.3,7.1,6.3c2,3,3,7,3,12.1v27h-10.9v-22.9
	C383.5,291.6,380.4,286.9,374.3,286.9z"/>
<path class="st1" d="M428.2,325.5c-4.4,0-8.4-1.1-12.1-3.3s-6.7-5.2-8.8-9c-2.2-3.8-3.2-7.8-3.2-12.2c0-4.3,1.1-8.4,3.2-12
	c2.2-3.7,5.1-6.6,8.8-8.8s7.7-3.3,12.1-3.3c5.2,0,9.9,1.5,14,4.4s7.1,7,8.9,12.2h-12.3c-1.3-2.2-2.7-3.9-4.4-5
	c-1.7-1.1-3.8-1.7-6.2-1.7c-2.5,0-4.8,0.6-6.8,1.9c-2,1.3-3.6,3-4.7,5.1s-1.7,4.6-1.7,7.3s0.6,5.1,1.8,7.3c1.2,2.2,2.9,3.9,4.9,5.1
	s4.4,1.9,7,1.9c4.1,0,7.5-2.1,10.1-6.3h12.3c-1.9,5.2-4.9,9.2-8.9,12.1C438.1,324.1,433.5,325.5,428.2,325.5z"/>
<path class="st1" d="M568.5,318.5c-1.4,2.2-3.4,4-6,5.2c-2.6,1.2-5.4,1.9-8.5,1.9c-4.2,0-8-1.1-11.6-3.2s-6.4-5.1-8.5-8.8
	c-2.1-3.7-3.2-7.8-3.2-12.2c0-4.7,1.1-8.9,3.3-12.6c2.2-3.7,5.1-6.6,8.7-8.7c3.6-2.1,7.4-3.1,11.5-3.1c2.8,0,5.2,0.4,7.4,1.3
	c2.1,0.9,4.2,2.3,6.2,4.3v-19.2h10.9v60.9h-10v-5.6L568.5,318.5L568.5,318.5z M568.6,301.2c0-2.5-0.6-4.9-1.8-7.1
	c-1.2-2.2-2.8-4-4.9-5.3c-2-1.3-4.3-2-6.8-2c-2.2,0-4.4,0.6-6.5,1.9c-2.1,1.3-3.8,3-5,5.1s-1.9,4.4-1.9,6.9c0,2.6,0.6,5.1,1.8,7.3
	c1.2,2.2,2.8,4,4.9,5.4c2,1.3,4.3,2,6.8,2c2.4,0,4.7-0.6,6.7-1.9c2.1-1.3,3.7-3,4.9-5.2C568,306.1,568.6,303.8,568.6,301.2z"/>
<path class="st1" d="M612.5,315.5c2.3,0,4.3-0.5,6.2-1.4s3.3-2.4,4.3-4.4h11.5c-1,3-2.6,5.7-4.8,8.1c-2.2,2.4-4.9,4.3-7.9,5.7
	c-3,1.4-6.1,2.1-9.3,2.1c-4.5,0-8.6-1.1-12.2-3.2c-3.7-2.1-6.6-5.1-8.7-8.8c-2.1-3.7-3.2-7.8-3.2-12.2s1-8.5,3.1-12.3
	s4.9-6.7,8.6-8.9s7.7-3.3,12.3-3.3c4.3,0,8.3,1.1,11.9,3.2c3.6,2.1,6.5,5,8.5,8.6c2.1,3.6,3.1,7.6,3.1,12c0,1.6-0.2,3.4-0.7,5.5H600
	c0.3,1.4,1,2.9,2.2,4.3c1.2,1.5,2.7,2.7,4.5,3.6C608.4,315,610.4,315.5,612.5,315.5z M612.4,286.9c-3.1,0-5.8,0.9-8.1,2.7
	s-3.9,4.4-4.7,7.8h25.2c-0.5-3.3-1.9-5.9-4.1-7.7C618.6,287.8,615.8,286.9,612.4,286.9z"/>
</svg>
